<svg width="144" height="54" viewBox="0 0 144 54" fill="none" xmlns="http://www.w3.org/2000/svg">
<path d="M38.124 52.3412C38.124 52.9305 38.6029 53.4094 39.1922 53.4094H40.8498V53.9987H39.1922C38.2898 53.9987 37.5347 53.262 37.5347 52.3412C37.5347 51.4203 38.2714 50.6836 39.1922 50.6836H40.8498V51.273H39.1922C38.6029 51.273 38.124 51.7518 38.124 52.3412Z" fill="white"/>
<path d="M43.962 53.4094L44.2567 53.9987H43.5937L43.299 53.4094L42.9859 52.7832V52.7463C42.8754 52.5806 42.6912 52.4701 42.4702 52.4701H41.8809V53.9803H41.2915V50.6836H43.3727C43.6121 50.6836 43.8331 50.7757 43.9989 50.9414C44.1646 51.1072 44.2567 51.3282 44.2567 51.5676C44.2567 51.9176 44.0357 52.2307 43.741 52.378C43.6674 52.4148 43.5753 52.4333 43.4832 52.4517L43.962 53.391V53.4094ZM43.3727 51.8807C43.4095 51.8807 43.4648 51.8807 43.5016 51.8439C43.6121 51.7886 43.6858 51.6966 43.6858 51.5676C43.6858 51.4387 43.6305 51.3835 43.5937 51.3466C43.5568 51.3098 43.4832 51.2545 43.3727 51.2545H41.8809V51.8623H43.3727V51.8807Z" fill="white"/>
<path d="M45.3257 51.5863V51.8994H47.4437V52.4888H45.3257V53.115C45.3257 53.2807 45.4546 53.4096 45.6204 53.4096H48.0331V53.999H45.6204C45.1231 53.999 44.7363 53.5938 44.7363 53.115V51.6047C44.7363 51.1075 45.1231 50.7207 45.6204 50.7207H48.0331V51.3101H45.6204C45.4546 51.3101 45.3257 51.439 45.3257 51.6047V51.5863Z" fill="white"/>
<path d="M51.6977 53.9998H51.0347L50.74 53.4105L50.0217 51.9923L49.3034 53.4105L49.0087 53.9998H48.3457L48.6404 53.4105L50.0217 50.7031L51.403 53.4105L51.6977 53.9998Z" fill="white"/>
<path d="M54.331 50.7031V51.2925H52.9866V53.9998H52.3972V51.2925H51.0527V50.7031H54.3495H54.331Z" fill="white"/>
<path d="M54.8105 53.9998V50.7031H55.3999V53.9998H54.8105Z" fill="white"/>
<path d="M59.0463 50.6836L58.7516 51.273L57.3703 53.9803L55.989 51.273L55.6943 50.6836H56.3574L56.652 51.273L57.3703 52.6911L58.0886 51.273L58.3833 50.6836H59.0463Z" fill="white"/>
<path d="M59.728 51.5863V51.8994H61.846V52.4888H59.728V53.115C59.728 53.2807 59.8569 53.4096 60.0227 53.4096H62.4354V53.999H60.0227C59.5254 53.999 59.1387 53.5938 59.1387 53.115V51.6047C59.1387 51.1075 59.5254 50.7207 60.0227 50.7207H62.4354V51.3101H60.0227C59.8569 51.3101 59.728 51.439 59.728 51.6047V51.5863Z" fill="white"/>
<path d="M66.8364 50.702C67.7389 50.702 68.494 51.4387 68.494 52.3412C68.494 53.2436 68.3467 53.1147 68.1072 53.4094C68.0704 53.4462 68.052 53.483 68.0151 53.5015C67.7205 53.7961 67.3153 53.9803 66.8548 53.9803H65.1973V50.6836H66.8364V50.702ZM65.7866 53.4094H66.8548C67.4442 53.4094 67.923 52.9305 67.923 52.3412C67.923 51.7518 67.4442 51.273 66.8548 51.273H65.7866V53.391V53.4094Z" fill="white"/>
<path d="M69.5625 51.5863V51.8994H71.6805V52.4888H69.5625V53.115C69.5625 53.2807 69.6914 53.4096 69.8572 53.4096H72.2699V53.999H69.8572C69.3599 53.999 68.9731 53.5938 68.9731 53.115V51.6047C68.9731 51.1075 69.3599 50.7207 69.8572 50.7207H72.2699V51.3101H69.8572C69.6914 51.3101 69.5625 51.439 69.5625 51.6047V51.5863Z" fill="white"/>
<path d="M75.2723 51.6053C75.2723 51.4211 75.1434 51.2922 74.9776 51.2922H73.6332C73.4674 51.2922 73.3385 51.4211 73.3385 51.5869C73.3385 51.7711 73.4674 51.9 73.6332 51.9H74.8119C75.125 51.9 75.3828 52.0289 75.5854 52.2315C75.5854 52.2315 75.6038 52.2683 75.6223 52.2683C75.7696 52.4525 75.8617 52.6735 75.8617 52.9314C75.8617 53.5023 75.4012 53.9812 74.8119 53.9812H73.7805C73.2096 53.9812 72.7307 53.5207 72.7307 52.9314H73.3201C73.3201 53.1892 73.5227 53.3918 73.7805 53.3918H74.8119C75.0697 53.3918 75.2723 53.1892 75.2723 52.9314C75.2723 52.6735 75.0697 52.4709 74.8119 52.4709H73.6332C73.3937 52.4709 73.1727 52.3788 73.007 52.2131C72.9701 52.1762 72.9333 52.121 72.8965 52.0657C72.8044 51.9184 72.7491 51.7526 72.7491 51.5685C72.7491 51.0528 73.1359 50.666 73.6332 50.666H74.9776C75.4749 50.666 75.8617 51.0712 75.8617 51.5501C75.8617 51.5685 75.2723 51.5685 75.2723 51.5685V51.6053Z" fill="white"/>
<path d="M76.3223 53.9998V50.7031H76.9116V53.9998H76.3223Z" fill="white"/>
<path d="M77.979 52.3412C77.979 52.9305 78.4579 53.4094 79.0472 53.4094H80.1154V52.7832H79.0472V52.1938H80.7048V53.9987H79.0472C78.1448 53.9987 77.3896 53.262 77.3896 52.3412C77.3896 51.4203 78.1263 50.6836 79.0472 50.6836H80.7048V51.273H79.0472C78.4579 51.273 77.979 51.7518 77.979 52.3412Z" fill="white"/>
<path d="M84.4618 50.702V53.9987L83.8724 53.5383L81.7544 51.8991V53.9803H81.165V50.6836L81.7544 51.144L83.8724 52.7832V50.6836H84.4618V50.702Z" fill="white"/>
<path d="M89.7667 51.6053C89.7667 51.4211 89.6378 51.2922 89.472 51.2922H88.1276C87.9618 51.2922 87.8329 51.4211 87.8329 51.5869C87.8329 51.7711 87.9618 51.9 88.1276 51.9H89.3063C89.6194 51.9 89.8772 52.0289 90.0798 52.2315C90.0798 52.2315 90.0982 52.2683 90.1166 52.2683C90.264 52.4525 90.3561 52.6735 90.3561 52.9314C90.3561 53.5023 89.8956 53.9812 89.3063 53.9812H88.2749C87.704 53.9812 87.2251 53.5207 87.2251 52.9314H87.8145C87.8145 53.1892 88.017 53.3918 88.2749 53.3918H89.3063C89.5641 53.3918 89.7667 53.1892 89.7667 52.9314C89.7667 52.6735 89.5641 52.4709 89.3063 52.4709H88.1276C87.8881 52.4709 87.6671 52.3788 87.5014 52.2131C87.4645 52.1762 87.4277 52.121 87.3909 52.0657C87.2988 51.9184 87.2435 51.7526 87.2435 51.5685C87.2435 51.0528 87.6303 50.666 88.1276 50.666H89.472C89.9693 50.666 90.3561 51.0712 90.3561 51.5501C90.3561 51.5685 89.7667 51.5685 89.7667 51.5685V51.6053Z" fill="white"/>
<path d="M93.9658 50.7031V51.2925H92.6213V53.9998H92.032V51.2925H90.6875V50.7031H93.9842H93.9658Z" fill="white"/>
<path d="M97.7409 50.6836V52.3412C97.7409 53.2436 97.0042 53.9987 96.0834 53.9987C95.1625 53.9987 94.4258 53.262 94.4258 52.3412V50.6836H95.0151V52.3412C95.0151 52.9305 95.494 53.4094 96.0834 53.4094C96.6727 53.4094 97.1516 52.9305 97.1516 52.3412V50.6836H97.7409Z" fill="white"/>
<path d="M99.8403 50.702C100.743 50.702 101.498 51.4387 101.498 52.3412C101.498 53.2436 101.351 53.1147 101.111 53.4094C101.074 53.4462 101.056 53.483 101.019 53.5015C100.724 53.7961 100.319 53.9803 99.8587 53.9803H98.2012V50.6836H99.8403V50.702ZM98.7905 53.4094H99.8587C100.448 53.4094 100.927 52.9305 100.927 52.3412C100.927 51.7518 100.448 51.273 99.8587 51.273H98.7905V53.391V53.4094Z" fill="white"/>
<path d="M101.977 53.9998V50.7031H102.566V53.9998H101.977Z" fill="white"/>
<path d="M106.213 52.3412C106.213 53.2436 105.476 53.9987 104.556 53.9987C103.635 53.9987 102.898 53.262 102.898 52.3412C102.898 51.4203 103.635 50.6836 104.556 50.6836C105.476 50.6836 106.213 51.4203 106.213 52.3412ZM105.624 52.3412C105.624 51.7518 105.145 51.273 104.556 51.273C103.966 51.273 103.487 51.7518 103.487 52.3412C103.487 52.9305 103.966 53.4094 104.556 53.4094C105.145 53.4094 105.624 52.9305 105.624 52.3412Z" fill="white"/>
<path d="M4.29126 11.9898C4.29126 16.2258 7.75374 19.6882 11.9898 19.6882H19.6882V15.1023H11.9898V10.8295H23.9795V23.9795H11.9898C5.37789 23.9795 0 18.6016 0 11.9898C0 5.37789 5.37789 0 11.9898 0H23.9795V4.27285H11.9898C7.75374 4.27285 4.29126 7.73532 4.29126 11.9713V11.9898Z" fill="white"/>
<path d="M51.2561 19.7622V24.035H27.3687V16.9812C27.3687 15.9866 27.5712 15.0657 27.958 14.2001C28.9894 11.7322 31.3837 9.98253 34.1831 9.89044H44.5521C45.9887 9.76152 47.0937 8.56438 47.0937 7.10941C47.0937 5.65443 45.8598 4.30996 44.3127 4.30996H27.4423V0.0371094H44.3127C48.2172 0.0371094 51.3666 3.18649 51.3666 7.09099C51.3666 10.9955 51.164 9.0064 50.7772 9.87202C50.4273 10.664 49.9484 11.3823 49.3407 11.99C48.1067 13.2608 46.3939 14.0712 44.5153 14.1449H34.1831C32.7834 14.2738 31.6783 15.4709 31.6783 16.9259V19.7069L51.2561 19.7806V19.7622Z" fill="white"/>
<path d="M78.7716 0V4.27285H61.2751C60.0779 4.27285 59.0834 5.26739 59.0834 6.46452V8.69303H74.4804V12.9659H59.0466V23.9611H54.8105V6.48294C54.8105 2.92837 57.6837 0.0184173 61.2382 0.0184173H78.7716V0Z" fill="white"/>
<path d="M42.6362 43.5741V17.5502C50.3716 17.366 58.8988 19.9076 59.7092 28.8401C60.7222 39.9274 52.4159 43.7766 42.6362 43.5741Z" fill="white"/>
<path d="M77.1871 12.4121H83.1543C83.1543 13.2041 82.9701 13.1304 82.6202 13.4067C81.8283 14.0328 80.889 14.3091 80.1707 15.1931C77.3344 18.6372 78.2184 23.9414 81.2389 26.9251C84.2962 29.9271 91.1475 31.0874 91.6816 35.8943H78.2369V43.5744H77.3897H65.4552H64.8105V35.8943H77.1318L77.1871 28.6563H66.2839H64.8105V21.3814H77.1871V12.4121Z" fill="white"/>
<path d="M118.755 34.1811V38.8776H123.268L123.139 42.3216C118.792 43.7398 114.096 42.3216 112.899 37.5147C110.67 28.6191 120.947 24.4383 126.675 30.7739L127.319 24.8066H128.811V34.1995H118.755V34.1811Z" fill="white"/>
<path d="M99.804 12.4121V35.8943H98.5332C99.1041 30.7559 96.3783 28.4353 92.5291 25.9121C90.54 24.6045 83.0994 22.0076 85.6962 18.582C87.7958 15.8193 93.5789 19.245 95.9731 20.1106V13.2777L94.6655 12.4121H99.804Z" fill="white"/>
<path d="M108.332 22.248H102.788V46.1355H108.332V22.248Z" fill="white"/>
<path d="M142.882 28.215L141.906 27.6809L132.218 13.2969H142.882V28.215Z" fill="white"/>
<path d="M143.73 46.1338H133.066V31.1973L143.73 46.1338Z" fill="white"/>
</svg>
