<?xml version="1.0" standalone="no"?>
<!DOCTYPE svg PUBLIC "-//W3C//DTD SVG 20010904//EN"
 "http://www.w3.org/TR/2001/REC-SVG-20010904/DTD/svg10.dtd">
<svg version="1.0" xmlns="http://www.w3.org/2000/svg"
 width="144.000000pt" height="54.000000pt" viewBox="0 0 144.000000 54.000000"
 preserveAspectRatio="xMidYMid meet">
<metadata>
Created by potrace 1.16, written by Peter Selinger 2001-2019
</metadata>
<g transform="translate(0.000000,54.000000) scale(0.100000,-0.100000)"
fill="#FFFFFF" stroke="none">
<path d="M58 524 l-28 -15 -15 -29 -15 -29 0 -31 0 -31 15 -29 15 -30 30 -15
29 -15 76 0 75 0 0 65 0 65 -60 0 -60 0 0 -20 0 -20 35 0 35 0 0 -20 0 -20
-53 0 -54 0 -16 18 -17 19 0 35 0 35 18 16 19 17 76 0 77 0 0 25 0 25 -77 0
-78 -1 -27 -15z"/>
<path d="M272 518 l3 -23 90 -3 90 -3 9 -9 9 -9 -13 -16 -12 -15 -68 0 -69 0
-20 -26 -21 -27 0 -43 0 -44 75 0 75 0 0 -101 0 -102 45 6 45 7 30 15 30 15
15 30 16 30 -7 105 -7 105 82 0 82 0 -3 23 -3 22 -78 3 -78 3 4 12 4 12 94 5
94 5 3 23 3 22 -104 0 -104 0 -18 -20 -18 -20 -5 -75 -5 -76 -16 5 -16 5 -36
6 -37 7 -6 -11 -7 -11 -50 0 -49 0 0 19 0 19 16 6 16 6 63 0 64 0 21 27 21 27
-6 26 -6 25 -21 18 -20 17 -100 0 -99 0 3 -22z"/>
<path d="M770 375 l0 -44 -62 -3 -63 -3 0 -35 0 -35 63 -3 62 -3 0 -34 0 -35
-66 0 -65 0 3 -37 3 -38 70 0 70 0 3 37 3 38 65 0 64 0 0 10 0 10 -41 28 -41
27 -24 22 -24 22 0 36 0 35 20 20 20 20 0 5 0 5 -30 0 -30 0 0 -45z"/>
<path d="M958 380 l4 -39 -41 16 -41 16 -15 -13 -15 -12 0 -14 0 -13 59 -35
59 -36 6 -16 6 -16 0 -19 0 -19 10 0 10 0 0 120 0 120 -23 0 -23 0 4 -40z"/>
<path d="M1336 383 l17 -28 31 -47 31 -48 8 0 7 0 0 75 0 75 -56 0 -56 0 18
-27z"/>
<path d="M1027 313 l-7 -6 0 -114 0 -113 35 0 35 0 0 120 0 120 -28 0 -29 0
-6 -7z"/>
<path d="M1270 266 l0 -25 -35 14 -34 15 -25 -10 -25 -9 -16 -25 -17 -25 7
-31 7 -30 21 -15 21 -15 27 0 27 0 6 16 6 16 0 4 0 4 -25 0 -25 0 0 19 0 20
48 3 47 3 3 48 3 47 -10 0 -11 0 0 -24z"/>
<path d="M1330 150 l0 -70 55 0 55 0 -51 70 -51 70 -4 0 -4 0 0 -70z"/>
<path d="M381 26 l-12 -14 8 -5 8 -4 73 -1 72 -2 0 13 0 12 8 -11 7 -11 18 0
17 0 0 9 0 8 -26 10 -25 10 -9 0 -9 0 -15 -16 -16 -15 0 13 0 14 -44 2 -44 1
-11 -13z m29 -6 l0 -10 -17 0 -18 0 15 10 15 10 3 0 2 0 0 -10z"/>
<path d="M585 22 l5 -14 0 -4 0 -4 19 0 19 0 -5 19 -5 20 -19 -2 -19 -1 5 -14z"/>
<path d="M650 18 l0 -18 18 0 17 0 -15 10 -15 10 8 0 7 0 20 -12 21 -13 9 15
10 15 0 -12 0 -13 18 0 18 0 13 13 14 12 -7 -12 -7 -12 36 1 35 1 0 13 0 12
-25 -2 -24 -3 4 7 4 6 -80 0 -79 -1 0 -17z"/>
<path d="M873 23 l-5 -14 6 -7 7 -6 19 12 20 12 0 -12 0 -13 9 14 9 13 6 -11
7 -11 32 0 32 0 -15 10 -15 10 8 0 7 0 19 -12 18 -11 18 7 18 7 -11 11 -11 11
-36 2 -37 2 -5 -13 -5 -14 -9 0 -9 0 0 15 0 14 -36 -1 -36 -1 -5 -14z"/>
</g>
</svg>
